<svg xmlns="http://www.w3.org/2000/svg" viewBox="0 0 261.02 58.1"><defs><style>.cls-1{fill:#3c64a9;}.cls-1,.cls-3{fill-rule:evenodd;}.cls-2{fill:#3c3f43;}.cls-3{fill:#edeef0;}</style></defs><title>Enbusiness_new_logo</title><g id="Camada_15" data-name="Camada 15"><path class="cls-1" d="M60.14,39.27V34.65a3.93,3.93,0,0,0-2.3-3.57l-6.77-3.91a3.9,3.9,0,0,0-3.95,0l-7,4.06a3.93,3.93,0,0,0-2,3.39v4.62H30.58l0-7.42a6.59,6.59,0,0,1,3.3-5.71L45.76,19.3a6.56,6.56,0,0,1,6.65-.05l11.41,6.58a6.63,6.63,0,0,1,3.87,6l0,7.42Z" transform="translate(-2.19 -2.68)"/></g><g id="Camada_14" data-name="Camada 14"><path class="cls-1" d="M37.9,19.18,32,22.6a3.28,3.28,0,0,1-3.33,0l-5.71-3.29a3.3,3.3,0,0,1-1.93-3V9.43a3.32,3.32,0,0,1,1.66-2.86L28.6,3.15a3.3,3.3,0,0,1,3.33,0l5.71,3.3a3.3,3.3,0,0,1,1.93,3l0,6.89a3.29,3.29,0,0,1-1.65,2.86" transform="translate(-2.19 -2.68)"/></g><g id="Camada_13" data-name="Camada 13"><path class="cls-2" d="M162.48,48.77V24.65a26.77,26.77,0,0,1,6.26-2.22,30,30,0,0,1,6.93-.85c3.85,0,6.71.9,8.57,2.73S187,28.68,187,32V48.77h-7.6v-16a5.4,5.4,0,0,0-1.13-3.65,4.27,4.27,0,0,0-3.4-1.3,14.31,14.31,0,0,0-2.55.28,9.35,9.35,0,0,0-2.28.68v20Z" transform="translate(-2.19 -2.68)"/></g><g id="Camada_12" data-name="Camada 12"><path class="cls-2" d="M126.44,48.52l.4-5.34c3.85.41,6.78.62,8.75.62a7.91,7.91,0,0,0,3.88-.72,2.13,2.13,0,0,0,1.22-1.85,2.16,2.16,0,0,0-.7-1.65,4.55,4.55,0,0,0-1.92-1l-2.69-.77a27.9,27.9,0,0,1-2.92-1,13.94,13.94,0,0,1-2.69-1.4,6,6,0,0,1-2-2.33,7.84,7.84,0,0,1-.76-3.58,8.65,8.65,0,0,1,.52-3.12A5.37,5.37,0,0,1,129,24.16a10.44,10.44,0,0,1,2-1.39,9,9,0,0,1,2.43-.79c.93-.15,1.74-.26,2.43-.32s1.47-.08,2.31-.08a54.9,54.9,0,0,1,9.32.7l-.47,5.4a45.11,45.11,0,0,0-6.84-.62c-.85,0-1.59,0-2.19.08a9,9,0,0,0-1.73.34,2.51,2.51,0,0,0-1.21.72,1.59,1.59,0,0,0-.42,1.15,1.66,1.66,0,0,0,.82,1.43,6.18,6.18,0,0,0,2,.86l2.69.67a20.14,20.14,0,0,1,2.87,1,11.81,11.81,0,0,1,2.6,1.47,6.32,6.32,0,0,1,1.91,2.49,9.14,9.14,0,0,1,.73,3.8q0,8.25-11,8.25a74.42,74.42,0,0,1-10.85-.76" transform="translate(-2.19 -2.68)"/></g><g id="Camada_11" data-name="Camada 11"><path class="cls-2" d="M217.32,48.52l.4-5.34c3.85.41,6.78.62,8.76.62a7.89,7.89,0,0,0,3.87-.72,2.13,2.13,0,0,0,1.22-1.85,2.16,2.16,0,0,0-.7-1.65,4.49,4.49,0,0,0-1.92-1l-2.69-.77a27.9,27.9,0,0,1-2.92-1,13.94,13.94,0,0,1-2.69-1.4,6,6,0,0,1-2-2.33,7.84,7.84,0,0,1-.76-3.58,8.65,8.65,0,0,1,.52-3.12,5.37,5.37,0,0,1,1.47-2.21,10.44,10.44,0,0,1,2-1.39,9,9,0,0,1,2.43-.79c.93-.15,1.74-.26,2.44-.32s1.46-.08,2.3-.08a54.9,54.9,0,0,1,9.32.7l-.47,5.4a45,45,0,0,0-6.84-.62c-.85,0-1.58,0-2.19.08a9,9,0,0,0-1.73.34,2.51,2.51,0,0,0-1.21.72,1.63,1.63,0,0,0-.42,1.15,1.66,1.66,0,0,0,.82,1.43,6.27,6.27,0,0,0,2,.86l2.69.67a20.14,20.14,0,0,1,2.87,1,11.58,11.58,0,0,1,2.6,1.47,6.23,6.23,0,0,1,1.91,2.49,9.14,9.14,0,0,1,.73,3.8q0,8.25-11,8.25a74.42,74.42,0,0,1-10.85-.76" transform="translate(-2.19 -2.68)"/></g><g id="Camada_10" data-name="Camada 10"><path class="cls-2" d="M241.36,48.52l.4-5.34q5.79.62,8.76.62a7.89,7.89,0,0,0,3.87-.72,2.13,2.13,0,0,0,1.22-1.85,2.19,2.19,0,0,0-.69-1.65,4.61,4.61,0,0,0-1.92-1l-2.7-.77a28.71,28.71,0,0,1-2.92-1,13.94,13.94,0,0,1-2.69-1.4,6,6,0,0,1-2-2.33,7.84,7.84,0,0,1-.76-3.58,8.65,8.65,0,0,1,.52-3.12,5.37,5.37,0,0,1,1.47-2.21,10.44,10.44,0,0,1,2-1.39,9,9,0,0,1,2.44-.79c.92-.15,1.73-.26,2.43-.32s1.46-.08,2.3-.08a54.9,54.9,0,0,1,9.32.7l-.47,5.4a45,45,0,0,0-6.84-.62c-.85,0-1.58,0-2.19.08a9,9,0,0,0-1.73.34,2.51,2.51,0,0,0-1.21.72,1.63,1.63,0,0,0-.42,1.15,1.66,1.66,0,0,0,.82,1.43,6.27,6.27,0,0,0,2,.86l2.69.67a20.14,20.14,0,0,1,2.87,1,11.58,11.58,0,0,1,2.6,1.47,6.23,6.23,0,0,1,1.91,2.49,9.14,9.14,0,0,1,.73,3.8q0,8.25-11,8.25a74.52,74.52,0,0,1-10.85-.76" transform="translate(-2.19 -2.68)"/></g><g id="Camada_9" data-name="Camada 9"><path class="cls-2" d="M99.57,38.59V22.09h7.6V37.87c0,3.44,1.47,5.17,4.39,5.17a19.08,19.08,0,0,0,4.58-.57V22.09h7.61V47.42a33.79,33.79,0,0,1-6.16,1.37,47.37,47.37,0,0,1-6.42.49q-11.6,0-11.6-10.69" transform="translate(-2.19 -2.68)"/></g><g id="Camada_8" data-name="Camada 8"><path class="cls-2" d="M71.11,47.51v-36h7.6V23.84a15,15,0,0,1,3.34-1.72,11.14,11.14,0,0,1,3.71-.54c3.63,0,6.39,1.08,8.26,3.24s2.81,5.26,2.81,9.31v.7a19.81,19.81,0,0,1-.78,5.82,11.85,11.85,0,0,1-2.11,4.14,10.52,10.52,0,0,1-3.25,2.64,14.54,14.54,0,0,1-4,1.45,24,24,0,0,1-4.57.4,38.86,38.86,0,0,1-5.82-.46,25.31,25.31,0,0,1-5.21-1.31m7.6-4.61a10.68,10.68,0,0,0,3.37.48,6.3,6.3,0,0,0,4.88-2q1.82-2,1.81-6.23v-.66q0-6.69-5.68-6.7a8.61,8.61,0,0,0-4.38,1.07Z" transform="translate(-2.19 -2.68)"/></g><g id="Camada_7" data-name="Camada 7"><path class="cls-2" d="M2.19,35.83V35c0-4.49,1.09-7.85,3.24-10.06s5.31-3.34,9.45-3.34,7.4,1.11,9.54,3.34,3.2,5.67,3.2,10.37V38H10.28a5.59,5.59,0,0,0,2.25,4.22q1.82,1.16,6,1.16c2.88,0,4.62-1.07,6.64-2.11l.44,6a17.6,17.6,0,0,1-8.12,2Q9.87,49.28,6,46.09C3.48,44,2.19,40.53,2.19,35.83M9.9,33.25H20q-.09-5.78-5-5.77a4.64,4.64,0,0,0-3.68,1.42A7.19,7.19,0,0,0,9.9,33.25Z" transform="translate(-2.19 -2.68)"/></g><g id="Camada_6" data-name="Camada 6"><path class="cls-2" d="M190.08,35.83V35q0-6.73,3.23-10.06t9.46-3.34c4.21,0,7.4,1.11,9.54,3.34s3.2,5.67,3.2,10.37V38H198.17a5.62,5.62,0,0,0,2.24,4.22q1.83,1.16,6,1.16c2.89,0,4.63-1.07,6.65-2.11l.44,6a17.63,17.63,0,0,1-8.12,2q-7.62,0-11.46-3.19c-2.55-2.13-3.84-5.56-3.84-10.26m7.71-2.58h10.12q-.09-5.78-5-5.77a4.64,4.64,0,0,0-3.68,1.42A7.19,7.19,0,0,0,197.79,33.25Z" transform="translate(-2.19 -2.68)"/></g><g id="Camada_5" data-name="Camada 5"><rect class="cls-2" x="148.8" y="19.41" width="7.6" height="26.68"/></g><g id="Camada_4" data-name="Camada 4"><path class="cls-3" d="M60.13,40.4v4.1a3.92,3.92,0,0,1-2.29,3.57L51.06,52a3.93,3.93,0,0,1-4,0l-7-4.06a3.92,3.92,0,0,1-2-3.39V40.4H30.57v6.9A6.6,6.6,0,0,0,33.89,53l11.85,6.84a6.58,6.58,0,0,0,6.66,0l11.41-6.58a6.62,6.62,0,0,0,3.86-6V40.4Z" transform="translate(-2.19 -2.68)"/></g><g id="Camada_3" data-name="Camada 3"><path class="cls-1" d="M30.58,32.81h7.53V46.74a2.05,2.05,0,0,1-2,2H32.63a2.05,2.05,0,0,1-2.05-2Z" transform="translate(-2.19 -2.68)"/></g><g id="Camada_2" data-name="Camada 2"><path class="cls-1" d="M60.14,32.81h7.53V46.74a2.05,2.05,0,0,1-2,2H62.19a2.05,2.05,0,0,1-2-2Z" transform="translate(-2.19 -2.68)"/></g></svg>