<svg xmlns="http://www.w3.org/2000/svg" xmlns:xlink="http://www.w3.org/1999/xlink" width="428" height="407" viewBox="0 0 428 407">
  <defs>
    <clipPath id="clip-path">
      <rect id="Retângulo_1" data-name="Retângulo 1" width="494.513" height="346.564"/>
    </clipPath>
    <clipPath id="clip-OUT_LINE_ENBUSINESS">
      <rect width="428" height="407"/>
    </clipPath>
  </defs>
  <g id="OUT_LINE_ENBUSINESS" clip-path="url(#clip-OUT_LINE_ENBUSINESS)">
    <g id="Grupo_4" data-name="Grupo 4" transform="translate(-64.831 60.228)">
      <g id="Grupo_1" data-name="Grupo 1" clip-path="url(#clip-path)">
        <path id="Caminho_1" data-name="Caminho 1" d="M1285.91,452.207a26.528,26.528,0,0,0-15.441-22.376l-45.717-26.4a26.406,26.406,0,0,0-26.667.211l-47.491,27.424a26.392,26.392,0,0,0-13.248,22.885l-.059,31.157h-.059v50.418a13.875,13.875,0,0,1-13.836,13.842h-23.139a13.877,13.877,0,0,1-13.843-13.842v-93.98h.132l.013-6.5a44.452,44.452,0,0,1,22.31-38.528l79.976-46.169a44.4,44.4,0,0,1,44.891-.363l77.006,44.454a44.641,44.641,0,0,1,26.086,40.606l-.1,46.486v53.989a13.871,13.871,0,0,1-13.836,13.842h-23.139a13.878,13.878,0,0,1-13.849-13.842V452.207Z" transform="translate(-727.494 -230.404)" fill="none" stroke="#d9d9d9" stroke-miterlimit="22.926" stroke-width="2"/>
      </g>
      <g id="Grupo_2" data-name="Grupo 2" clip-path="url(#clip-path)">
        <path id="Caminho_2" data-name="Caminho 2" d="M1005.017,134.988l-39.991,23.086a22.205,22.205,0,0,1-22.445.178l-38.5-22.227a22.32,22.32,0,0,1-13.043-20.3l.093-46.529a22.21,22.21,0,0,1,11.15-19.264l39.991-23.089a22.206,22.206,0,0,1,22.445-.175l38.5,22.224a22.319,22.319,0,0,1,13.043,20.3l-.092,46.529A22.208,22.208,0,0,1,1005.017,134.988Z" transform="translate(-596.668 -15.874)" fill="none" stroke="#d9d9d9" stroke-miterlimit="22.926" stroke-width="2"/>
      </g>
      <g id="Grupo_3" data-name="Grupo 3" clip-path="url(#clip-path)">
        <path id="Caminho_3" data-name="Caminho 3" d="M1289.574,952.94l-44.491,25.686a26.417,26.417,0,0,1-26.661-.211L1174.411,953a32.168,32.168,0,0,1-30.589,22.349h-23.139a32.187,32.187,0,0,1-3.763-.221,44.466,44.466,0,0,0,12.286,10.41l79.982,46.176a44.391,44.391,0,0,0,44.884.353l77-44.451a44.807,44.807,0,0,0,16.129-12.5,32.63,32.63,0,0,1-3.875.235h-23.139A32.173,32.173,0,0,1,1289.574,952.94Z" transform="translate(-747.924 -638.118)" fill="none" stroke="#d9d9d9" stroke-miterlimit="22.926" stroke-width="1.008"/>
      </g>
    </g>
  </g>
</svg>
