<svg xmlns="http://www.w3.org/2000/svg" width="1520.518" height="169.381" viewBox="0 0 1520.518 169.381">
  <g id="Grupo_10" data-name="Grupo 10" transform="translate(-0.001 0.001)">
    <path id="Caminho_1" data-name="Caminho 1" d="M1520.02,20.73V169.38H.5V36.63a.53.53,0,0,1,.27.08C37.74,60.2,87.86,63.76,149.75,47.27c77.62-20.69,147.73-37.1,219.65-28.33,24.21,2.95,47.7,9.82,70.41,16.47,25.3,7.41,51.46,15.06,78.69,17.3,51.52,4.22,103.31-4,149.76-23.76,1.09-.46,2.18-.93,3.28-1.4,18.36-7.89,37.34-16.03,56.94-6.08a34.6,34.6,0,0,1,14.86-5.01c6.28-.5,12.6,1.41,18.52,3.4a94,94,0,0,1,19.35,9.34c7.78,4.74,16.36,9.29,26.33,10.41a54.58,54.58,0,0,0,24.25-2.9l.01-.01a.611.611,0,0,1,.14-.07c5.62-1.91,11.23-4.32,16.66-6.65,1.09-.47,2.18-.94,3.27-1.4C898.48,8.75,950.43.51,1002.11,4.75c27.32,2.24,53.54,9.91,78.89,17.33,22.67,6.64,46.11,13.5,70.25,16.44,71.74,8.74,141.75-7.65,219.27-28.3C1432.53-6.31,1482.83-2.78,1520.02,20.73Z" fill="#fff"/>
    <g id="Grupo_9" data-name="Grupo 9">
      <g id="Grupo_1" data-name="Grupo 1">
        <path id="Caminho_2" data-name="Caminho 2" d="M736.13,74.89c-2.8,0-5.49-2.09-7.55-3.94a.5.5,0,0,1-.04-.71.514.514,0,0,1,.71-.04c1.98,1.78,4.59,3.8,7.12,3.68a2.553,2.553,0,0,0,2.1-1.1,3.373,3.373,0,0,0,.21-2.98,13.011,13.011,0,0,0-3.55-4.87h0a.5.5,0,0,1-.03-.71.514.514,0,0,1,.71-.03h0a27.063,27.063,0,0,0,7.17,5.24,8.235,8.235,0,0,0,5.7.44,2.54,2.54,0,0,0,1.81-1.64c.58-2.2-2.41-5.68-3.53-6.99a57.2,57.2,0,0,0-5.01-4.98v-.01a.541.541,0,0,1-.01-.67.462.462,0,0,1,.67-.07.6.6,0,0,1,.08.08c3.44,3.11,7.27,6.54,11.76,7.13a5.111,5.111,0,0,0,2.39-.15,2.242,2.242,0,0,0,1.43-1.25,5.322,5.322,0,0,0-.39-3.96,21.375,21.375,0,0,0-3.63-5c-.26-.29-.52-.59-.78-.88a68.777,68.777,0,0,0-5.13-5.25.5.5,0,1,1,.69-.73c1.27,1.19,2.46,2.29,3.78,3.31,1.81,1.39,4.28,3.3,6.65,3.21a2.147,2.147,0,0,0,1.84-.95,5.3,5.3,0,0,0,.06-4.38,16.961,16.961,0,0,0-2.92-4.53c-4.56-5.36-10.62-9.41-16.44-13.1-.14-.09-.24-.14-.33-.19a3.173,3.173,0,0,1-.38-.21.5.5,0,0,1,.52-.86,2.6,2.6,0,0,0,.31.17c.12.06.23.12.41.23,5.88,3.73,12.01,7.84,16.66,13.3a17.909,17.909,0,0,1,3.09,4.82c.6,1.52.81,3.82-.16,5.29a3.124,3.124,0,0,1-2.64,1.4,8.647,8.647,0,0,1-4.72-1.57l.23.26a21.993,21.993,0,0,1,3.79,5.24c.3.65,1.21,2.91.4,4.77a3.205,3.205,0,0,1-2.03,1.8,6.354,6.354,0,0,1-2.84.19,15.086,15.086,0,0,1-5.89-2.27c1.85,2.26,3.58,4.92,3.02,7.04A3.492,3.492,0,0,1,749,70.8a9.168,9.168,0,0,1-6.44-.46,18.189,18.189,0,0,1-3.47-2.05,9.626,9.626,0,0,1,.51,1.15,4.359,4.359,0,0,1-.31,3.88,3.56,3.56,0,0,1-2.88,1.55A1.231,1.231,0,0,1,736.13,74.89Z" fill="#3763b0"/>
      </g>
      <g id="Grupo_2" data-name="Grupo 2">
        <path id="Caminho_3" data-name="Caminho 3" d="M728.99,68.86c-.3-2.81-2.35-4.92-4.68-4.92-.13,0-.27.01-.4.02a3.892,3.892,0,0,0-2.11.9,5.2,5.2,0,0,0-1.77,3.09,6.052,6.052,0,0,0-.08,1.86c.3,2.81,2.35,4.92,4.68,4.92.14,0,.27-.01.41-.02a4.58,4.58,0,0,0,3.77-3.56,5.227,5.227,0,0,0,.19-1.06A6.325,6.325,0,0,0,728.99,68.86Zm-1.75,3.38a3.2,3.2,0,0,1-2.31,1.47c-.1.01-.2.02-.3.02-1.83,0-3.44-1.77-3.68-4.03a4.865,4.865,0,0,1,.76-3.27,3.167,3.167,0,0,1,2.3-1.47c.1-.01.2-.02.3-.02,1.83,0,3.45,1.77,3.68,4.02A4.945,4.945,0,0,1,727.24,72.24Z" fill="#3763b0"/>
      </g>
      <g id="Grupo_3" data-name="Grupo 3">
        <path id="Caminho_4" data-name="Caminho 4" d="M705.48,41.53a2.952,2.952,0,0,0-1.49-.38c-2.06,0-4.59,1.81-6.26,4.71-2.1,3.64-2.05,7.61.13,8.87a2.889,2.889,0,0,0,1.48.38,5.625,5.625,0,0,0,3.1-1.14,11.343,11.343,0,0,0,3.16-3.57,10.341,10.341,0,0,0,.58-1.15C707.67,45.95,707.42,42.65,705.48,41.53Zm-6.14,12.58a1.857,1.857,0,0,1-.98-.25c-1.64-.94-1.53-4.45.24-7.5,1.43-2.48,3.65-4.21,5.39-4.21a1.918,1.918,0,0,1,.99.25,3.091,3.091,0,0,1,1.16,2.68,9.68,9.68,0,0,1-1.41,4.82C703.3,52.38,701.09,54.11,699.34,54.11Z" fill="#3763b0"/>
      </g>
      <g id="Grupo_4" data-name="Grupo 4">
        <path id="Caminho_5" data-name="Caminho 5" d="M713,47.67a3.9,3.9,0,0,0-1.97-.5,7.942,7.942,0,0,0-4.85,2.08,15.293,15.293,0,0,0-3.44,4.16c-.11.19-.21.37-.3.56-2.48,4.67-2.3,9.59.46,11.19a3.861,3.861,0,0,0,1.97.51c1.88,0,4.06-1.15,5.96-3.11a16.135,16.135,0,0,0,2.33-3.13,16.623,16.623,0,0,0,.96-1.94C715.88,53.27,715.5,49.12,713,47.67Zm-.7,11.26c-1.95,3.38-5.01,5.74-7.43,5.74a3,3,0,0,1-1.47-.37c-1.07-.62-1.68-1.99-1.7-3.84a13.127,13.127,0,0,1,1.91-6.55c1.95-3.38,5-5.74,7.42-5.74a2.868,2.868,0,0,1,1.47.37c1.08.62,1.68,1.98,1.71,3.84A13.126,13.126,0,0,1,712.3,58.93Z" fill="#3763b0"/>
      </g>
      <g id="Grupo_5" data-name="Grupo 5">
        <path id="Caminho_6" data-name="Caminho 6" d="M720.72,55.43a3.4,3.4,0,0,0-1.66-.41,7.53,7.53,0,0,0-4.94,2.47,14.465,14.465,0,0,0-2.53,3.43,16.106,16.106,0,0,0-.76,1.64c-1.53,3.93-1.08,7.76,1.26,9.01a3.508,3.508,0,0,0,1.66.4c2.03,0,4.42-1.52,6.28-4.02a14.668,14.668,0,0,0,1.19-1.88,13.337,13.337,0,0,0,.58-1.21C723.54,60.79,723.14,56.72,720.72,55.43Zm-.39,10.17c-1.69,3.16-4.39,5.37-6.58,5.37a2.46,2.46,0,0,1-1.19-.28c-2.13-1.14-2.17-5.4-.08-9.3,1.69-3.16,4.4-5.37,6.58-5.37a2.466,2.466,0,0,1,1.19.29c.96.51,1.54,1.7,1.61,3.35A11.77,11.77,0,0,1,720.33,65.6Z" fill="#3763b0"/>
      </g>
      <g id="Grupo_6" data-name="Grupo 6">
        <path id="Caminho_7" data-name="Caminho 7" d="M832.42,37.51a.377.377,0,0,1-.15.09,56.434,56.434,0,0,1-18.96,3.33,52.453,52.453,0,0,1-5.89-.33c-10.16-1.14-18.85-5.74-26.73-10.55a94.442,94.442,0,0,0-19.15-9.25c-5.82-1.96-12.02-3.83-18.12-3.34a33.4,33.4,0,0,0-14.64,5.01.076.076,0,0,0-.04.02c-.43.26-.86.53-1.28.81a13.732,13.732,0,0,0-2.93,2.46,3.612,3.612,0,0,0-1.02,2.63,2.689,2.689,0,0,0,1.18,1.83,7.107,7.107,0,0,0,4.37,1.26c2.84-.05,5.24-1.15,7.85-2.48a14.22,14.22,0,0,1,8.24-1.27.488.488,0,0,1,.43.55.477.477,0,0,1-.55.44c-.63-.07-1.25-.11-1.85-.12a15.033,15.033,0,0,0-1.8.1,11.941,11.941,0,0,0-4.02,1.2c-2.62,1.33-5.23,2.52-8.28,2.58a8.154,8.154,0,0,1-5-1.46,3.674,3.674,0,0,1-1.56-2.51,4.52,4.52,0,0,1,1.25-3.4,14.323,14.323,0,0,1,3.14-2.65c.19-.12.37-.25.56-.36.33-.22.67-.43,1.01-.63a34.6,34.6,0,0,1,14.86-5.01c6.28-.5,12.6,1.41,18.52,3.4a94,94,0,0,1,19.35,9.34c7.78,4.74,16.36,9.29,26.33,10.41a54.58,54.58,0,0,0,24.25-2.9l.01-.01a.647.647,0,0,0,.13-.04.5.5,0,0,1,.64.3A.5.5,0,0,1,832.42,37.51Z" fill="#3763b0"/>
      </g>
      <g id="Grupo_7" data-name="Grupo 7">
        <path id="Caminho_8" data-name="Caminho 8" d="M728.94,22.28a.5.5,0,0,1-.16.19.076.076,0,0,0-.04.02.519.519,0,0,1-.47,0c-.27-.14-.53-.27-.8-.39-18.99-9.32-37.56-1.34-55.54,6.37-1.09.47-2.18.94-3.27,1.4C622.05,49.7,570.1,57.94,518.42,53.7c-27.33-2.24-53.54-9.91-78.9-17.33-22.67-6.64-46.11-13.5-70.24-16.44-71.75-8.74-141.75,7.64-219.27,28.3Q111.655,58.445,79.37,58.45C48.74,58.45,22.35,51.53.5,37.71c-.09-.05-.17-.11-.26-.16a.5.5,0,0,1-.16-.69.506.506,0,0,1,.42-.23.53.53,0,0,1,.27.08C37.74,60.2,87.86,63.76,149.75,47.27c77.62-20.69,147.73-37.1,219.65-28.33,24.21,2.95,47.7,9.82,70.41,16.47,25.3,7.41,51.46,15.06,78.69,17.3,51.52,4.22,103.31-4,149.76-23.76,1.09-.46,2.18-.93,3.28-1.4,18.36-7.89,37.34-16.03,56.94-6.08.08.04.17.09.25.13A.507.507,0,0,1,728.94,22.28Z" fill="#3763b0"/>
      </g>
      <g id="Grupo_8" data-name="Grupo 8">
        <path id="Caminho_9" data-name="Caminho 9" d="M1520.44,21.59a.494.494,0,0,1-.42.23.56.56,0,0,1-.27-.08c-36.96-23.5-87.09-27.05-148.98-10.56-62.96,16.78-120.97,30.74-179.02,30.74a334.1,334.1,0,0,1-40.62-2.41c-24.22-2.95-47.7-9.82-70.41-16.47-25.3-7.41-51.47-15.07-78.69-17.3C950.51,1.52,898.72,9.73,852.26,29.5c-1.09.46-2.18.93-3.27,1.4-5.39,2.32-10.97,4.7-16.57,6.61-.05.02-.11.04-.16.06a.5.5,0,0,1-.47-.86l.01-.01a.611.611,0,0,1,.14-.07c5.62-1.91,11.23-4.32,16.66-6.65,1.09-.47,2.18-.94,3.27-1.4C898.48,8.75,950.43.51,1002.11,4.75c27.32,2.24,53.54,9.91,78.89,17.33,22.67,6.64,46.11,13.5,70.25,16.44,71.74,8.74,141.75-7.65,219.27-28.3,62.01-16.53,112.31-13,149.5,10.51.09.06.18.11.27.17A.5.5,0,0,1,1520.44,21.59Z" fill="#3763b0"/>
      </g>
    </g>
  </g>
</svg>
